<svg width="115" height="107" viewBox="0 0 115 107" fill="none" xmlns="http://www.w3.org/2000/svg">
<path d="M85.9478 0H63.0288C61.974 0 61.1191 0.854841 61.1191 1.90967C61.1191 2.96451 61.974 3.81935 63.0288 3.81935H85.9478C87.0026 3.81935 87.8575 2.96451 87.8575 1.90967C87.8575 0.854841 87.0026 0 85.9478 0Z" fill="#265A8D"/>
<path d="M16.1967 54.9893L2.79687 47.9648C1.8624 47.4748 0.708071 47.8359 0.218079 48.7704C-0.270944 49.7048 0.0901368 50.8592 1.02459 51.3492L14.4264 58.3737C14.6984 58.5178 15.0016 58.5917 15.3106 58.5907C16.1891 58.5917 16.9549 57.9918 17.1653 57.1379C17.3757 56.284 16.9757 55.3969 16.1967 54.9893Z" fill="#265A8D"/>
<path d="M16.1967 70.2696L2.79687 63.2451C1.8624 62.7551 0.708071 63.1162 0.218079 64.0506C-0.270944 64.9851 0.0901368 66.1394 1.02459 66.6294L14.4264 73.654C14.6984 73.7971 15.0016 73.872 15.3106 73.871C16.1891 73.872 16.9549 73.2711 17.1653 72.4181C17.3757 71.5642 16.9757 70.6771 16.1967 70.2696Z" fill="#265A8D"/>
<path d="M16.1967 85.5473L2.79687 78.5228C1.8624 78.0337 0.708071 78.3948 0.218079 79.3293C-0.270944 80.2638 0.0901368 81.4181 1.02459 81.9071L14.4264 88.9316C14.6984 89.0757 15.0016 89.1506 15.3106 89.1496C16.1891 89.1506 16.9549 88.5497 17.1653 87.6958C17.3757 86.8429 16.9757 85.9558 16.1967 85.5473Z" fill="#265A8D"/>
<path d="M112.685 68.7578H99.3159C98.2611 68.7578 97.4062 69.6127 97.4062 70.6675C97.4062 71.7223 98.2611 72.5772 99.3159 72.5772H112.685C113.74 72.5772 114.595 71.7223 114.595 70.6675C114.595 69.6127 113.74 68.7578 112.685 68.7578Z" fill="#FFBE1F"/>
<path d="M99.3159 57.2969H112.685C113.74 57.2969 114.595 56.442 114.595 55.3872C114.595 54.3324 113.74 53.4775 112.685 53.4775H99.3159C98.2611 53.4775 97.4062 54.3324 97.4062 55.3872C97.4062 56.442 98.2611 57.2969 99.3159 57.2969Z" fill="#CF0080"/>
<path d="M112.685 84.0361H99.3159C98.2611 84.0361 97.4062 84.8919 97.4062 85.9468C97.4062 87.0016 98.2611 87.8564 99.3159 87.8564H112.685C113.74 87.8564 114.595 87.0016 114.595 85.9468C114.595 84.8919 113.74 84.0361 112.685 84.0361Z" fill="#00A5EA"/>
<path d="M34.3809 84.036H95.4965V72.5771H34.3809V84.036ZM55.3902 76.3965H74.4889V80.2158L55.3892 80.2167L55.3902 76.3965Z" fill="#265A8D"/>
<path d="M34.3809 68.7587H95.4965V57.2988H34.3809V68.7587ZM55.3902 61.1191H74.4889V64.9384H55.3892L55.3902 61.1191Z" fill="#265A8D"/>
<path d="M76.3983 36.2886C76.3983 37.8087 75.7946 39.2662 74.7199 40.3401C73.6451 41.4148 72.1884 42.0185 70.6684 42.0185H59.2095C57.6893 42.0185 56.2326 41.4148 55.158 40.3401C54.0833 39.2663 53.4796 37.8086 53.4796 36.2886V34.3789H34.3809V53.4786H95.4965V34.3789H76.3978L76.3983 36.2886Z" fill="#265A8D"/>
<path d="M34.3809 99.3163H95.4965V87.8574H34.3809V99.3163ZM55.3902 91.6767H74.4889V95.496L55.3892 95.497L55.3902 91.6767Z" fill="#265A8D"/>
<path d="M87.8574 103.135H91.6767V106.954H87.8574V103.135Z" fill="#265A8D"/>
<path d="M19.1016 45.8379H30.5604V99.3159H19.1016V45.8379Z" fill="#265A8D"/>
<path d="M70.6676 38.1982C71.1746 38.1982 71.6599 37.9964 72.0181 37.6381C72.3764 37.2808 72.5782 36.7946 72.5782 36.2876V34.3779H57.2988V36.2876C57.2988 36.7946 57.4997 37.2808 57.858 37.6381C58.2162 37.9964 58.7015 38.1982 59.2085 38.1982H70.6676Z" fill="#265A8D"/>
<path d="M38.1992 103.135H42.0185V106.954H38.1992V103.135Z" fill="#265A8D"/>
<path d="M57.8334 0H37.6686L35.123 7.63958H60.3797L57.8334 0Z" fill="#265A8D"/>
<path d="M87.8565 21.0112C87.8565 22.066 87.0016 22.9209 85.9468 22.9209C84.892 22.9209 84.0371 22.066 84.0371 21.0112C84.0371 19.9564 84.892 19.1006 85.9468 19.1006C87.0016 19.1006 87.8565 19.9564 87.8565 21.0112Z" fill="#265A8D"/>
<path d="M42.0176 19.0986H57.297V22.9179H42.0176V19.0986Z" fill="#265A8D"/>
<path d="M63.0273 11.459H34.3789V30.5587H95.4946V11.459H63.0273ZM61.1177 24.8285C61.1177 25.3355 60.9167 25.8208 60.5585 26.179C60.2002 26.5373 59.7141 26.7382 59.208 26.7382H40.1083C39.0535 26.7382 38.1986 25.8833 38.1986 24.8285V17.1889C38.1986 16.1341 39.0535 15.2792 40.1083 15.2792H59.208C59.7141 15.2792 60.2002 15.4802 60.5585 15.8384C60.9167 16.1966 61.1177 16.6828 61.1177 17.1889V24.8285ZM68.7572 26.7382H64.9379V22.9189H68.7572V26.7382ZM68.7572 19.0986H64.9379V15.2793H68.7572V19.0986ZM76.3968 26.7382H72.5775V22.9189H76.3968V26.7382ZM76.3968 19.0986H72.5775V15.2793H76.3968V19.0986ZM85.946 26.7382C84.4268 26.7382 82.9691 26.1345 81.8946 25.0607C80.8198 23.986 80.2161 22.5282 80.2161 21.0092C80.2161 19.489 80.8198 18.0315 81.8946 16.9577C82.9693 15.883 84.427 15.2793 85.946 15.2793C87.4662 15.2793 88.923 15.883 89.9975 16.9577C91.0723 18.0315 91.676 19.4892 91.676 21.0092C91.676 22.5284 91.0723 23.9861 89.9975 25.0607C88.9228 26.1345 87.4661 26.7382 85.946 26.7382Z" fill="#265A8D"/>
</svg>
