<svg width="391" height="107" viewBox="0 0 391 107" fill="none" xmlns="http://www.w3.org/2000/svg">
<path d="M150.016 86.4C150.016 87.5627 149.605 88.4853 148.784 89.168C148.016 89.808 147.04 90.128 145.856 90.128C145.141 90.128 144.443 90.0107 143.76 89.776C142.832 89.4667 142.368 89.0293 142.368 88.464C142.368 88.1867 142.459 87.968 142.64 87.808C142.821 87.648 143.051 87.568 143.328 87.568C143.445 87.568 143.691 87.6427 144.064 87.792C144.576 87.984 144.843 88.0853 144.864 88.096C145.269 88.224 145.691 88.288 146.128 88.288C146.597 88.288 147.003 88.1227 147.344 87.792C147.696 87.4507 147.872 87.0453 147.872 86.576C147.872 85.8933 147.408 85.36 146.48 84.976C145.616 84.624 144.752 84.272 143.888 83.92C142.96 83.3653 142.496 82.544 142.496 81.456C142.496 80.4427 142.885 79.6373 143.664 79.04C144.379 78.4853 145.259 78.208 146.304 78.208C147.381 78.208 148.208 78.432 148.784 78.88C149.104 79.1253 149.264 79.408 149.264 79.728C149.264 79.9947 149.173 80.208 148.992 80.368C148.821 80.5173 148.603 80.592 148.336 80.592C148.144 80.592 147.813 80.496 147.344 80.304C146.885 80.112 146.507 80.016 146.208 80.016C145.771 80.016 145.397 80.1387 145.088 80.384C144.789 80.6187 144.64 80.9547 144.64 81.392C144.64 81.7547 144.789 82.032 145.088 82.224C145.323 82.3733 145.744 82.5653 146.352 82.8C147.643 83.3013 148.48 83.696 148.864 83.984C149.632 84.56 150.016 85.3653 150.016 86.4Z" fill="#00A5EA"/>
<path d="M162.059 89.232C162.059 89.4987 161.958 89.7173 161.755 89.888C161.563 90.048 161.328 90.128 161.051 90.128C160.56 90.128 160.214 89.8293 160.011 89.232L159.371 87.36H154.667L153.995 89.28C153.792 89.8453 153.467 90.128 153.019 90.128C152.742 90.128 152.507 90.048 152.315 89.888C152.134 89.7173 152.043 89.4933 152.043 89.216C152.043 89.0027 152.075 88.8107 152.139 88.64L155.547 79.472C155.867 78.608 156.374 78.176 157.067 78.176C157.782 78.176 158.283 78.576 158.571 79.376L161.931 88.624C162.016 88.8587 162.059 89.0613 162.059 89.232ZM158.779 85.568L157.051 80.48C157.03 80.512 157.003 80.5653 156.971 80.64L155.275 85.568H158.779Z" fill="#00A5EA"/>
<path d="M170.872 89.04C170.872 89.68 170.456 90 169.624 90H166.104C165.656 90 165.336 89.904 165.144 89.712C164.962 89.5093 164.872 89.184 164.872 88.736C164.872 88.736 164.872 86.436 164.872 84.136C164.872 81.836 164.872 79.536 164.872 79.536C164.872 78.6507 165.213 78.208 165.896 78.208C166.578 78.208 166.92 78.6613 166.92 79.568C166.92 79.568 166.92 81.7 166.92 83.832C166.92 85.964 166.92 88.096 166.92 88.096H169.512C170.418 88.096 170.872 88.4107 170.872 89.04Z" fill="#00A5EA"/>
<path d="M179.652 89.072C179.652 89.6907 179.22 90 178.356 90H174.692C174.244 90 173.924 89.9093 173.732 89.728C173.54 89.5467 173.444 89.232 173.444 88.784C173.444 88.784 173.444 86.504 173.444 84.224C173.444 81.944 173.444 79.664 173.444 79.664C173.444 78.768 173.85 78.32 174.66 78.32H178.372C179.204 78.32 179.62 78.64 179.62 79.28C179.62 79.92 179.199 80.24 178.356 80.24H175.492C175.492 80.24 175.492 80.94 175.492 81.64C175.492 82.34 175.492 83.04 175.492 83.04H178.116C178.959 83.04 179.38 83.3493 179.38 83.968C179.38 84.5867 178.959 84.896 178.116 84.896H175.492C175.492 84.896 175.492 85.696 175.492 86.496C175.492 87.296 175.492 88.096 175.492 88.096H178.404C179.236 88.096 179.652 88.4213 179.652 89.072Z" fill="#00A5EA"/>
<path d="M189.993 86.4C189.993 87.5627 189.583 88.4853 188.762 89.168C187.994 89.808 187.017 90.128 185.833 90.128C185.119 90.128 184.42 90.0107 183.738 89.776C182.81 89.4667 182.346 89.0293 182.346 88.464C182.346 88.1867 182.436 87.968 182.618 87.808C182.799 87.648 183.028 87.568 183.305 87.568C183.423 87.568 183.668 87.6427 184.042 87.792C184.554 87.984 184.82 88.0853 184.842 88.096C185.247 88.224 185.668 88.288 186.105 88.288C186.575 88.288 186.98 88.1227 187.322 87.792C187.674 87.4507 187.85 87.0453 187.85 86.576C187.85 85.8933 187.386 85.36 186.458 84.976C185.594 84.624 184.729 84.272 183.865 83.92C182.937 83.3653 182.473 82.544 182.473 81.456C182.473 80.4427 182.863 79.6373 183.641 79.04C184.356 78.4853 185.236 78.208 186.281 78.208C187.359 78.208 188.186 78.432 188.762 78.88C189.082 79.1253 189.242 79.408 189.242 79.728C189.242 79.9947 189.151 80.208 188.969 80.368C188.799 80.5173 188.58 80.592 188.314 80.592C188.122 80.592 187.791 80.496 187.322 80.304C186.863 80.112 186.484 80.016 186.186 80.016C185.748 80.016 185.375 80.1387 185.066 80.384C184.767 80.6187 184.618 80.9547 184.618 81.392C184.618 81.7547 184.767 82.032 185.066 82.224C185.3 82.3733 185.721 82.5653 186.329 82.8C187.62 83.3013 188.458 83.696 188.842 83.984C189.61 84.56 189.993 85.3653 189.993 86.4Z" fill="#00A5EA"/>
<path d="M250.816 89.264C250.816 89.5307 250.725 89.7493 250.544 89.92C250.363 90.08 250.139 90.16 249.872 90.16C249.531 90.16 249.184 89.952 248.832 89.536L245.136 85.104C245.136 85.104 245.109 85.0773 245.056 85.024C245.056 85.024 245.056 85.976 245.056 86.928C245.056 87.88 245.056 88.832 245.056 88.832C245.056 89.696 244.709 90.128 244.016 90.128C243.344 90.128 243.008 89.6907 243.008 88.816C243.008 88.816 243.008 86.524 243.008 84.232C243.008 81.94 243.008 79.648 243.008 79.648C243.008 78.7627 243.429 78.32 244.272 78.32H246.56C247.723 78.32 248.661 78.6027 249.376 79.168C250.155 79.776 250.544 80.6507 250.544 81.792C250.544 83.7653 249.493 84.8267 247.392 84.976L250.304 88.192C250.645 88.5653 250.816 88.9227 250.816 89.264ZM248.432 81.888C248.432 80.7467 247.803 80.176 246.544 80.176H245.056C245.056 80.176 245.056 81.032 245.056 81.888C245.056 82.744 245.056 83.6 245.056 83.6C245.323 83.664 245.765 83.696 246.384 83.696C247.749 83.696 248.432 83.0933 248.432 81.888Z" fill="#CF0080"/>
<path d="M260.039 89.072C260.039 89.6907 259.606 90 258.742 90H255.079C254.631 90 254.31 89.9093 254.118 89.728C253.926 89.5467 253.831 89.232 253.831 88.784C253.831 88.784 253.831 86.504 253.831 84.224C253.831 81.944 253.831 79.664 253.831 79.664C253.831 78.768 254.236 78.32 255.046 78.32H258.759C259.591 78.32 260.007 78.64 260.007 79.28C260.007 79.92 259.585 80.24 258.742 80.24H255.878C255.878 80.24 255.878 80.94 255.878 81.64C255.878 82.34 255.878 83.04 255.878 83.04H258.503C259.345 83.04 259.767 83.3493 259.767 83.968C259.767 84.5867 259.345 84.896 258.503 84.896H255.878C255.878 84.896 255.878 85.696 255.878 86.496C255.878 87.296 255.878 88.096 255.878 88.096H258.79C259.622 88.096 260.039 88.4213 260.039 89.072Z" fill="#CF0080"/>
<path d="M271.324 82.128C271.324 82.928 271.137 83.6373 270.764 84.256C270.369 84.9067 269.809 85.376 269.084 85.664C268.614 85.856 268.086 85.952 267.5 85.952H265.42C265.42 85.952 265.42 86.672 265.42 87.392C265.42 88.112 265.42 88.832 265.42 88.832C265.42 89.696 265.073 90.128 264.38 90.128C263.708 90.128 263.372 89.6907 263.372 88.816C263.372 88.816 263.372 86.524 263.372 84.232C263.372 81.94 263.372 79.648 263.372 79.648C263.372 78.7627 263.793 78.32 264.636 78.32H267.292C268.497 78.32 269.468 78.656 270.204 79.328C270.95 80 271.324 80.9333 271.324 82.128ZM269.164 82.112C269.164 80.8213 268.46 80.176 267.052 80.176H265.42C265.42 80.176 265.42 81.164 265.42 82.152C265.42 83.14 265.42 84.128 265.42 84.128H267.02C267.66 84.128 268.177 83.952 268.572 83.6C268.966 83.248 269.164 82.752 269.164 82.112Z" fill="#CF0080"/>
<path d="M282.579 89.232C282.579 89.4987 282.478 89.7173 282.275 89.888C282.083 90.048 281.848 90.128 281.571 90.128C281.08 90.128 280.734 89.8293 280.531 89.232L279.891 87.36H275.187L274.515 89.28C274.312 89.8453 273.987 90.128 273.539 90.128C273.262 90.128 273.027 90.048 272.835 89.888C272.654 89.7173 272.563 89.4933 272.563 89.216C272.563 89.0027 272.595 88.8107 272.659 88.64L276.067 79.472C276.387 78.608 276.894 78.176 277.587 78.176C278.302 78.176 278.803 78.576 279.091 79.376L282.451 88.624C282.536 88.8587 282.579 89.0613 282.579 89.232ZM279.299 85.568L277.571 80.48C277.55 80.512 277.523 80.5653 277.491 80.64L275.795 85.568H279.299Z" fill="#CF0080"/>
<path d="M287.456 84.16C287.456 86.472 287.456 88.784 287.456 88.784C287.456 89.68 287.114 90.128 286.432 90.128C285.749 90.128 285.408 89.6853 285.408 88.8C285.408 88.8 285.408 86.484 285.408 84.168C285.408 81.852 285.408 79.536 285.408 79.536C285.408 78.6507 285.749 78.208 286.432 78.208C287.114 78.208 287.456 78.6507 287.456 79.536C287.456 79.536 287.456 81.848 287.456 84.16Z" fill="#CF0080"/>
<path d="M299.053 89.264C299.053 89.5307 298.963 89.7493 298.781 89.92C298.6 90.08 298.376 90.16 298.109 90.16C297.768 90.16 297.421 89.952 297.069 89.536L293.374 85.104C293.374 85.104 293.347 85.0773 293.293 85.024C293.293 85.024 293.293 85.976 293.293 86.928C293.293 87.88 293.293 88.832 293.293 88.832C293.293 89.696 292.947 90.128 292.254 90.128C291.582 90.128 291.246 89.6907 291.246 88.816C291.246 88.816 291.246 86.524 291.246 84.232C291.246 81.94 291.246 79.648 291.246 79.648C291.246 78.7627 291.667 78.32 292.509 78.32H294.797C295.96 78.32 296.899 78.6027 297.613 79.168C298.392 79.776 298.781 80.6507 298.781 81.792C298.781 83.7653 297.731 84.8267 295.629 84.976L298.542 88.192C298.883 88.5653 299.053 88.9227 299.053 89.264ZM296.669 81.888C296.669 80.7467 296.04 80.176 294.781 80.176H293.293C293.293 80.176 293.293 81.032 293.293 81.888C293.293 82.744 293.293 83.6 293.293 83.6C293.56 83.664 294.003 83.696 294.621 83.696C295.987 83.696 296.669 83.0933 296.669 81.888Z" fill="#CF0080"/>
<path d="M350.008 89.04C350.008 89.68 349.592 90 348.76 90H345.24C344.792 90 344.472 89.904 344.28 89.712C344.099 89.5093 344.008 89.184 344.008 88.736C344.008 88.736 344.008 86.436 344.008 84.136C344.008 81.836 344.008 79.536 344.008 79.536C344.008 78.6507 344.349 78.208 345.032 78.208C345.715 78.208 346.056 78.6613 346.056 79.568C346.056 79.568 346.056 81.7 346.056 83.832C346.056 85.964 346.056 88.096 346.056 88.096H348.648C349.555 88.096 350.008 88.4107 350.008 89.04Z" fill="#FFBE1F"/>
<path d="M358.789 89.072C358.789 89.6907 358.356 90 357.492 90H353.828C353.38 90 353.06 89.9093 352.868 89.728C352.676 89.5467 352.581 89.232 352.581 88.784C352.581 88.784 352.581 86.504 352.581 84.224C352.581 81.944 352.581 79.664 352.581 79.664C352.581 78.768 352.986 78.32 353.797 78.32H357.509C358.341 78.32 358.757 78.64 358.757 79.28C358.757 79.92 358.335 80.24 357.492 80.24H354.629C354.629 80.24 354.629 80.94 354.629 81.64C354.629 82.34 354.629 83.04 354.629 83.04H357.253C358.095 83.04 358.517 83.3493 358.517 83.968C358.517 84.5867 358.095 84.896 357.253 84.896H354.629C354.629 84.896 354.629 85.696 354.629 86.496C354.629 87.296 354.629 88.096 354.629 88.096H357.54C358.372 88.096 358.789 88.4213 358.789 89.072Z" fill="#FFBE1F"/>
<path d="M371.21 89.232C371.21 89.4987 371.108 89.7173 370.906 89.888C370.714 90.048 370.479 90.128 370.202 90.128C369.711 90.128 369.364 89.8293 369.162 89.232L368.522 87.36H363.818L363.146 89.28C362.943 89.8453 362.618 90.128 362.17 90.128C361.892 90.128 361.658 90.048 361.466 89.888C361.284 89.7173 361.194 89.4933 361.194 89.216C361.194 89.0027 361.226 88.8107 361.29 88.64L364.698 79.472C365.018 78.608 365.524 78.176 366.218 78.176C366.932 78.176 367.434 78.576 367.722 79.376L371.082 88.624C371.167 88.8587 371.21 89.0613 371.21 89.232ZM367.93 85.568L366.202 80.48C366.18 80.512 366.154 80.5653 366.122 80.64L364.426 85.568H367.93Z" fill="#FFBE1F"/>
<path d="M381.03 86.4C381.03 87.5627 380.62 88.4853 379.798 89.168C379.03 89.808 378.054 90.128 376.87 90.128C376.156 90.128 375.457 90.0107 374.774 89.776C373.846 89.4667 373.382 89.0293 373.382 88.464C373.382 88.1867 373.473 87.968 373.654 87.808C373.836 87.648 374.065 87.568 374.342 87.568C374.46 87.568 374.705 87.6427 375.078 87.792C375.59 87.984 375.857 88.0853 375.878 88.096C376.284 88.224 376.705 88.288 377.142 88.288C377.612 88.288 378.017 88.1227 378.358 87.792C378.71 87.4507 378.886 87.0453 378.886 86.576C378.886 85.8933 378.422 85.36 377.494 84.976C376.63 84.624 375.766 84.272 374.902 83.92C373.974 83.3653 373.51 82.544 373.51 81.456C373.51 80.4427 373.9 79.6373 374.678 79.04C375.393 78.4853 376.273 78.208 377.318 78.208C378.396 78.208 379.222 78.432 379.798 78.88C380.118 79.1253 380.278 79.408 380.278 79.728C380.278 79.9947 380.188 80.208 380.006 80.368C379.836 80.5173 379.617 80.592 379.35 80.592C379.158 80.592 378.828 80.496 378.358 80.304C377.9 80.112 377.521 80.016 377.222 80.016C376.785 80.016 376.412 80.1387 376.102 80.384C375.804 80.6187 375.654 80.9547 375.654 81.392C375.654 81.7547 375.804 82.032 376.102 82.224C376.337 82.3733 376.758 82.5653 377.366 82.8C378.657 83.3013 379.494 83.696 379.878 83.984C380.646 84.56 381.03 85.3653 381.03 86.4Z" fill="#FFBE1F"/>
<path d="M390.194 89.072C390.194 89.6907 389.761 90 388.897 90H385.233C384.785 90 384.465 89.9093 384.273 89.728C384.081 89.5467 383.986 89.232 383.986 88.784C383.986 88.784 383.986 86.504 383.986 84.224C383.986 81.944 383.986 79.664 383.986 79.664C383.986 78.768 384.391 78.32 385.202 78.32H388.914C389.746 78.32 390.161 78.64 390.161 79.28C390.161 79.92 389.74 80.24 388.897 80.24H386.034C386.034 80.24 386.034 80.94 386.034 81.64C386.034 82.34 386.034 83.04 386.034 83.04H388.658C389.5 83.04 389.922 83.3493 389.922 83.968C389.922 84.5867 389.5 84.896 388.658 84.896H386.034C386.034 84.896 386.034 85.696 386.034 86.496C386.034 87.296 386.034 88.096 386.034 88.096H388.945C389.777 88.096 390.194 88.4213 390.194 89.072Z" fill="#FFBE1F"/>
<path d="M156.03 57.25C156.03 59.43 155.26 61.16 153.72 62.44C152.28 63.64 150.45 64.24 148.23 64.24C146.89 64.24 145.58 64.02 144.3 63.58C142.56 63 141.69 62.18 141.69 61.12C141.69 60.6 141.86 60.19 142.2 59.89C142.54 59.59 142.97 59.44 143.49 59.44C143.71 59.44 144.17 59.58 144.87 59.86C145.83 60.22 146.33 60.41 146.37 60.43C147.13 60.67 147.92 60.79 148.74 60.79C149.62 60.79 150.38 60.48 151.02 59.86C151.68 59.22 152.01 58.46 152.01 57.58C152.01 56.3 151.14 55.3 149.4 54.58C147.78 53.92 146.16 53.26 144.54 52.6C142.8 51.56 141.93 50.02 141.93 47.98C141.93 46.08 142.66 44.57 144.12 43.45C145.46 42.41 147.11 41.89 149.07 41.89C151.09 41.89 152.64 42.31 153.72 43.15C154.32 43.61 154.62 44.14 154.62 44.74C154.62 45.24 154.45 45.64 154.11 45.94C153.79 46.22 153.38 46.36 152.88 46.36C152.52 46.36 151.9 46.18 151.02 45.82C150.16 45.46 149.45 45.28 148.89 45.28C148.07 45.28 147.37 45.51 146.79 45.97C146.23 46.41 145.95 47.04 145.95 47.86C145.95 48.54 146.23 49.06 146.79 49.42C147.23 49.7 148.02 50.06 149.16 50.5C151.58 51.44 153.15 52.18 153.87 52.72C155.31 53.8 156.03 55.31 156.03 57.25Z" fill="#265A8D"/>
<path d="M177.681 53.08C177.681 56.24 176.811 58.86 175.071 60.94C173.211 63.14 170.731 64.24 167.631 64.24C164.551 64.24 162.081 63.13 160.221 60.91C158.461 58.83 157.581 56.22 157.581 53.08C157.581 49.9 158.451 47.28 160.191 45.22C162.051 43 164.531 41.89 167.631 41.89C170.751 41.89 173.241 42.99 175.101 45.19C176.821 47.25 177.681 49.88 177.681 53.08ZM167.631 45.4C165.931 45.4 164.511 46.05 163.371 47.35C162.231 48.65 161.661 50.56 161.661 53.08C161.661 55.16 162.121 56.9 163.041 58.3C164.101 59.92 165.631 60.73 167.631 60.73C169.631 60.73 171.171 59.92 172.251 58.3C173.151 56.92 173.601 55.18 173.601 53.08C173.601 50.54 173.031 48.63 171.891 47.35C170.771 46.05 169.351 45.4 167.631 45.4Z" fill="#265A8D"/>
<path d="M198.425 49.84C198.425 52.585 198.425 55.33 198.425 55.33C198.425 58.09 197.635 60.27 196.055 61.87C194.495 63.45 192.335 64.24 189.575 64.24C186.795 64.24 184.615 63.45 183.035 61.87C181.475 60.29 180.695 58.11 180.695 55.33C180.695 55.33 180.695 52.585 180.695 49.84C180.695 47.095 180.695 44.35 180.695 44.35C180.695 42.71 181.325 41.89 182.585 41.89C183.885 41.89 184.535 42.71 184.535 44.35C184.535 44.35 184.535 47.0275 184.535 49.705C184.535 52.3825 184.535 55.06 184.535 55.06C184.535 56.78 184.935 58.13 185.735 59.11C186.615 60.15 187.895 60.67 189.575 60.67C191.235 60.67 192.505 60.14 193.385 59.08C194.205 58.08 194.615 56.74 194.615 55.06C194.615 55.06 194.615 52.3825 194.615 49.705C194.615 47.0275 194.615 44.35 194.615 44.35C194.615 42.71 195.235 41.89 196.475 41.89C197.775 41.89 198.425 42.71 198.425 44.35C198.425 44.35 198.425 47.095 198.425 49.84Z" fill="#265A8D"/>
<path d="M214.984 43.87C214.984 45.03 214.194 45.61 212.614 45.61H209.554C209.554 45.61 209.554 49.6525 209.554 53.695C209.554 57.7375 209.554 61.78 209.554 61.78C209.554 63.42 208.904 64.24 207.604 64.24C206.344 64.24 205.714 63.42 205.714 61.78C205.714 61.78 205.714 57.7375 205.714 53.695C205.714 49.6525 205.714 45.61 205.714 45.61H202.684C201.084 45.61 200.284 45.03 200.284 43.87C200.284 42.69 201.094 42.1 202.714 42.1H212.554C214.174 42.1 214.984 42.69 214.984 43.87Z" fill="#265A8D"/>
<path d="M220.791 47.665C220.791 49.2775 220.791 50.89 220.791 50.89H230.121C230.121 50.89 230.121 49.2775 230.121 47.665C230.121 46.0525 230.121 44.44 230.121 44.44C230.121 42.74 230.761 41.89 232.041 41.89C233.321 41.89 233.961 42.74 233.961 44.44C233.961 44.44 233.961 48.76 233.961 53.08C233.961 57.4 233.961 61.72 233.961 61.72C233.961 63.4 233.321 64.24 232.041 64.24C230.761 64.24 230.121 63.4 230.121 61.72C230.121 61.72 230.121 59.8825 230.121 58.045C230.121 56.2075 230.121 54.37 230.121 54.37H220.791C220.791 54.37 220.791 56.2075 220.791 58.045C220.791 59.8825 220.791 61.72 220.791 61.72C220.791 63.4 220.141 64.24 218.841 64.24C217.581 64.24 216.951 63.4 216.951 61.72C216.951 61.72 216.951 57.4 216.951 53.08C216.951 48.76 216.951 44.44 216.951 44.44C216.951 42.74 217.581 41.89 218.841 41.89C220.141 41.89 220.791 42.74 220.791 44.44C220.791 44.44 220.791 46.0525 220.791 47.665Z" fill="#265A8D"/>
<path d="M249.692 62.26C249.692 63.42 248.882 64 247.262 64H240.392C239.552 64 238.952 63.83 238.592 63.49C238.232 63.15 238.052 62.56 238.052 61.72C238.052 61.72 238.052 57.445 238.052 53.17C238.052 48.895 238.052 44.62 238.052 44.62C238.052 42.94 238.812 42.1 240.332 42.1H247.292C248.852 42.1 249.632 42.7 249.632 43.9C249.632 45.1 248.842 45.7 247.262 45.7H241.892C241.892 45.7 241.892 47.0125 241.892 48.325C241.892 49.6375 241.892 50.95 241.892 50.95H246.812C248.392 50.95 249.182 51.53 249.182 52.69C249.182 53.85 248.392 54.43 246.812 54.43H241.892C241.892 54.43 241.892 55.93 241.892 57.43C241.892 58.93 241.892 60.43 241.892 60.43H247.352C248.912 60.43 249.692 61.04 249.692 62.26Z" fill="#265A8D"/>
<path d="M269.982 62.56C269.982 63.06 269.792 63.47 269.412 63.79C269.052 64.09 268.612 64.24 268.092 64.24C267.172 64.24 266.522 63.68 266.142 62.56L264.942 59.05H256.122L254.862 62.65C254.482 63.71 253.872 64.24 253.032 64.24C252.512 64.24 252.072 64.09 251.712 63.79C251.372 63.47 251.202 63.05 251.202 62.53C251.202 62.13 251.262 61.77 251.382 61.45L257.772 44.26C258.372 42.64 259.322 41.83 260.622 41.83C261.962 41.83 262.902 42.58 263.442 44.08L269.742 61.42C269.902 61.86 269.982 62.24 269.982 62.56ZM263.832 55.69L260.592 46.15C260.552 46.21 260.502 46.31 260.442 46.45L257.262 55.69H263.832Z" fill="#265A8D"/>
<path d="M285.396 57.25C285.396 59.43 284.626 61.16 283.086 62.44C281.646 63.64 279.816 64.24 277.596 64.24C276.256 64.24 274.946 64.02 273.666 63.58C271.926 63 271.056 62.18 271.056 61.12C271.056 60.6 271.226 60.19 271.566 59.89C271.906 59.59 272.336 59.44 272.856 59.44C273.076 59.44 273.536 59.58 274.236 59.86C275.196 60.22 275.696 60.41 275.736 60.43C276.496 60.67 277.286 60.79 278.106 60.79C278.986 60.79 279.746 60.48 280.386 59.86C281.046 59.22 281.376 58.46 281.376 57.58C281.376 56.3 280.506 55.3 278.766 54.58C277.146 53.92 275.526 53.26 273.906 52.6C272.166 51.56 271.296 50.02 271.296 47.98C271.296 46.08 272.026 44.57 273.486 43.45C274.826 42.41 276.476 41.89 278.436 41.89C280.456 41.89 282.006 42.31 283.086 43.15C283.686 43.61 283.986 44.14 283.986 44.74C283.986 45.24 283.816 45.64 283.476 45.94C283.156 46.22 282.746 46.36 282.246 46.36C281.886 46.36 281.266 46.18 280.386 45.82C279.526 45.46 278.816 45.28 278.256 45.28C277.436 45.28 276.736 45.51 276.156 45.97C275.596 46.41 275.316 47.04 275.316 47.86C275.316 48.54 275.596 49.06 276.156 49.42C276.596 49.7 277.386 50.06 278.526 50.5C280.946 51.44 282.516 52.18 283.236 52.72C284.676 53.8 285.396 55.31 285.396 57.25Z" fill="#265A8D"/>
<path d="M300.536 43.87C300.536 45.03 299.746 45.61 298.166 45.61H295.106C295.106 45.61 295.106 49.6525 295.106 53.695C295.106 57.7375 295.106 61.78 295.106 61.78C295.106 63.42 294.456 64.24 293.156 64.24C291.896 64.24 291.266 63.42 291.266 61.78C291.266 61.78 291.266 57.7375 291.266 53.695C291.266 49.6525 291.266 45.61 291.266 45.61H288.236C286.636 45.61 285.836 45.03 285.836 43.87C285.836 42.69 286.646 42.1 288.266 42.1H298.106C299.726 42.1 300.536 42.69 300.536 43.87Z" fill="#265A8D"/>
<path d="M323.048 62.2C323.048 63.4 322.268 64 320.708 64H314.108C313.268 64 312.668 63.82 312.308 63.46C311.968 63.08 311.798 62.47 311.798 61.63C311.798 61.63 311.798 57.3175 311.798 53.005C311.798 48.6925 311.798 44.38 311.798 44.38C311.798 42.72 312.438 41.89 313.718 41.89C314.998 41.89 315.638 42.74 315.638 44.44C315.638 44.44 315.638 48.4375 315.638 52.435C315.638 56.4325 315.638 60.43 315.638 60.43H320.498C322.198 60.43 323.048 61.02 323.048 62.2Z" fill="#7E8F9A"/>
<path d="M341.912 62.56C341.912 63.06 341.722 63.47 341.342 63.79C340.982 64.09 340.542 64.24 340.022 64.24C339.102 64.24 338.452 63.68 338.072 62.56L336.872 59.05H328.052L326.792 62.65C326.412 63.71 325.802 64.24 324.962 64.24C324.442 64.24 324.002 64.09 323.642 63.79C323.302 63.47 323.132 63.05 323.132 62.53C323.132 62.13 323.192 61.77 323.312 61.45L329.702 44.26C330.302 42.64 331.252 41.83 332.552 41.83C333.892 41.83 334.832 42.58 335.372 44.08L341.672 61.42C341.832 61.86 341.912 62.24 341.912 62.56ZM335.762 55.69L332.522 46.15C332.482 46.21 332.432 46.31 332.372 46.45L329.192 55.69H335.762Z" fill="#7E8F9A"/>
<path d="M357.325 57.25C357.325 59.43 356.555 61.16 355.015 62.44C353.575 63.64 351.745 64.24 349.525 64.24C348.185 64.24 346.875 64.02 345.595 63.58C343.855 63 342.985 62.18 342.985 61.12C342.985 60.6 343.155 60.19 343.495 59.89C343.835 59.59 344.265 59.44 344.785 59.44C345.005 59.44 345.465 59.58 346.165 59.86C347.125 60.22 347.625 60.41 347.665 60.43C348.425 60.67 349.215 60.79 350.035 60.79C350.915 60.79 351.675 60.48 352.315 59.86C352.975 59.22 353.305 58.46 353.305 57.58C353.305 56.3 352.435 55.3 350.695 54.58C349.075 53.92 347.455 53.26 345.835 52.6C344.095 51.56 343.225 50.02 343.225 47.98C343.225 46.08 343.955 44.57 345.415 43.45C346.755 42.41 348.405 41.89 350.365 41.89C352.385 41.89 353.935 42.31 355.015 43.15C355.615 43.61 355.915 44.14 355.915 44.74C355.915 45.24 355.745 45.64 355.405 45.94C355.085 46.22 354.675 46.36 354.175 46.36C353.815 46.36 353.195 46.18 352.315 45.82C351.455 45.46 350.745 45.28 350.185 45.28C349.365 45.28 348.665 45.51 348.085 45.97C347.525 46.41 347.245 47.04 347.245 47.86C347.245 48.54 347.525 49.06 348.085 49.42C348.525 49.7 349.315 50.06 350.455 50.5C352.875 51.44 354.445 52.18 355.165 52.72C356.605 53.8 357.325 55.31 357.325 57.25Z" fill="#7E8F9A"/>
<path d="M371.506 62.26C371.506 63.42 370.696 64 369.076 64H362.206C361.366 64 360.766 63.83 360.406 63.49C360.046 63.15 359.866 62.56 359.866 61.72C359.866 61.72 359.866 57.445 359.866 53.17C359.866 48.895 359.866 44.62 359.866 44.62C359.866 42.94 360.626 42.1 362.146 42.1H369.106C370.666 42.1 371.446 42.7 371.446 43.9C371.446 45.1 370.656 45.7 369.076 45.7H363.706C363.706 45.7 363.706 47.0125 363.706 48.325C363.706 49.6375 363.706 50.95 363.706 50.95H368.626C370.206 50.95 370.996 51.53 370.996 52.69C370.996 53.85 370.206 54.43 368.626 54.43H363.706C363.706 54.43 363.706 55.93 363.706 57.43C363.706 58.93 363.706 60.43 363.706 60.43H369.166C370.726 60.43 371.506 61.04 371.506 62.26Z" fill="#7E8F9A"/>
<path d="M389.396 62.62C389.396 63.12 389.226 63.53 388.886 63.85C388.546 64.15 388.126 64.3 387.626 64.3C386.986 64.3 386.336 63.91 385.676 63.13L378.746 54.82C378.746 54.82 378.696 54.77 378.596 54.67C378.596 54.67 378.596 56.455 378.596 58.24C378.596 60.025 378.596 61.81 378.596 61.81C378.596 63.43 377.946 64.24 376.646 64.24C375.386 64.24 374.756 63.42 374.756 61.78C374.756 61.78 374.756 57.4825 374.756 53.185C374.756 48.8875 374.756 44.59 374.756 44.59C374.756 42.93 375.546 42.1 377.126 42.1H381.416C383.596 42.1 385.356 42.63 386.696 43.69C388.156 44.83 388.886 46.47 388.886 48.61C388.886 52.31 386.916 54.3 382.976 54.58L388.436 60.61C389.076 61.31 389.396 61.98 389.396 62.62ZM384.926 48.79C384.926 46.65 383.746 45.58 381.386 45.58H378.596C378.596 45.58 378.596 47.185 378.596 48.79C378.596 50.395 378.596 52 378.596 52C379.096 52.12 379.926 52.18 381.086 52.18C383.646 52.18 384.926 51.05 384.926 48.79Z" fill="#7E8F9A"/>
<path d="M85.9471 0H63.0281C61.9732 0 61.1184 0.854841 61.1184 1.90967C61.1184 2.96451 61.9732 3.81935 63.0281 3.81935H85.9471C87.0019 3.81935 87.8567 2.96451 87.8567 1.90967C87.8567 0.854841 87.0019 0 85.9471 0Z" fill="#265A8D"/>
<path d="M17.2209 56.6813C17.2211 55.9832 16.8369 55.3245 16.1967 54.9896L2.79687 47.965C1.8624 47.475 0.708071 47.8361 0.218079 48.7706C0.0702084 49.0531 6.58547e-05 49.3558 4.63507e-08 49.6541C-0.00015178 50.3424 0.372697 51.0075 1.02459 51.3494L14.4264 58.3739C14.6984 58.518 15.0016 58.5919 15.3106 58.5909C16.1891 58.5919 16.9549 57.992 17.1653 57.1381C17.2028 56.9859 17.2209 56.8327 17.2209 56.6813Z" fill="#265A8D"/>
<path d="M17.2209 71.9614C17.2211 71.2634 16.8369 70.6046 16.1967 70.2697L2.79687 63.2451C1.8624 62.7552 0.708071 63.1163 0.218079 64.0507C0.0702084 64.3333 6.58539e-05 64.6359 4.63495e-08 64.9343C-0.000151779 65.6225 0.372697 66.2877 1.02459 66.6295L14.4264 73.654C14.6984 73.7972 15.0016 73.872 15.3106 73.8711C16.1891 73.872 16.9549 73.2711 17.1653 72.4182C17.2028 72.266 17.2209 72.1128 17.2209 71.9614Z" fill="#265A8D"/>
<path d="M17.2209 87.2395C17.2211 86.5419 16.8369 85.883 16.1967 85.5474L2.79687 78.5228C1.8624 78.0338 0.708071 78.3949 0.218079 79.3293C0.0702084 79.6119 6.58132e-05 79.9146 4.62924e-08 80.2129C-0.000151685 80.9011 0.372697 81.566 1.02459 81.9072L14.4264 88.9317C14.6984 89.0758 15.0016 89.1506 15.3106 89.1497C16.1891 89.1506 16.9549 88.5498 17.1653 87.6959C17.2028 87.5439 17.2209 87.3908 17.2209 87.2395Z" fill="#265A8D"/>
<path d="M112.686 68.7581H99.3166C98.2617 68.7581 97.4069 69.613 97.4069 70.6678C97.4069 71.7227 98.2617 72.5775 99.3166 72.5775H112.686C113.741 72.5775 114.596 71.7227 114.596 70.6678C114.596 69.613 113.741 68.7581 112.686 68.7581Z" fill="#FFBE1F"/>
<path d="M99.3153 57.2969H112.685C113.74 57.2969 114.595 56.4421 114.595 55.3872C114.595 54.3324 113.74 53.4776 112.685 53.4776H99.3153C98.2605 53.4776 97.4057 54.3324 97.4057 55.3872C97.4057 56.4421 98.2605 57.2969 99.3153 57.2969Z" fill="#CF0080"/>
<path d="M112.686 84.0359H99.3166C98.2617 84.0359 97.4069 84.8916 97.4069 85.9465C97.4069 87.0013 98.2617 87.8561 99.3166 87.8561H112.686C113.741 87.8561 114.596 87.0013 114.596 85.9465C114.596 84.8916 113.741 84.0359 112.686 84.0359Z" fill="#00A5EA"/>
<path d="M34.3809 78.3064C34.3809 81.1711 34.3809 84.0359 34.3809 84.0359H95.4966C95.4966 84.0359 95.4966 81.1711 95.4966 78.3064C95.4966 75.4417 95.4966 72.577 95.4966 72.577H34.3809C34.3809 72.577 34.3809 75.4417 34.3809 78.3064ZM55.3897 78.3066C55.39 77.3515 55.3902 76.3963 55.3902 76.3963H74.4889C74.4889 76.3963 74.4889 77.3511 74.4889 78.3059C74.4889 79.2608 74.4889 80.2156 74.4889 80.2156L55.3893 80.2165C55.3893 80.2165 55.3895 79.2616 55.3897 78.3066Z" fill="#265A8D"/>
<path d="M34.3809 63.0283C34.3809 65.8933 34.3809 68.7582 34.3809 68.7582H95.4966C95.4966 68.7582 95.4966 65.8933 95.4966 63.0283C95.4966 60.1633 95.4966 57.2984 95.4966 57.2984H34.3809C34.3809 57.2984 34.3809 60.1633 34.3809 63.0283ZM55.3897 63.0285C55.39 62.0736 55.3902 61.1186 55.3902 61.1186H74.4889C74.4889 61.1186 74.4889 62.0735 74.4889 63.0283C74.4889 63.9831 74.4889 64.9379 74.4889 64.9379H55.3893C55.3893 64.9379 55.3895 63.9833 55.3897 63.0285Z" fill="#265A8D"/>
<path d="M76.3975 35.3337C76.3976 35.8111 76.3977 36.2884 76.3977 36.2884C76.3977 37.8086 75.794 39.2661 74.7193 40.3399C73.6446 41.4147 72.1878 42.0184 70.6678 42.0184H59.2089C57.6888 42.0184 56.232 41.4147 55.1574 40.3399C54.0827 39.2662 53.479 37.8085 53.479 36.2884C53.479 36.2884 53.479 35.811 53.479 35.3336C53.479 34.8562 53.479 34.3788 53.479 34.3788H34.3803C34.3803 34.3788 34.3803 39.1537 34.3803 43.9286C34.3803 48.7035 34.3803 53.4784 34.3803 53.4784H95.496C95.496 53.4784 95.496 48.7035 95.496 43.9286C95.496 39.1537 95.496 34.3788 95.496 34.3788H76.3972C76.3972 34.3788 76.3974 34.8563 76.3975 35.3337Z" fill="#265A8D"/>
<path d="M34.3809 93.5865C34.3809 96.4513 34.3809 99.316 34.3809 99.316H95.4966C95.4966 99.316 95.4966 96.4513 95.4966 93.5865C95.4966 90.7218 95.4966 87.8571 95.4966 87.8571H34.3809C34.3809 87.8571 34.3809 90.7218 34.3809 93.5865ZM55.3897 93.5868C55.39 92.6316 55.3902 91.6764 55.3902 91.6764H74.4889C74.4889 91.6764 74.4889 92.6312 74.4889 93.5861C74.4889 94.5409 74.4889 95.4957 74.4889 95.4957L55.3893 95.4967C55.3893 95.4967 55.3895 94.5417 55.3897 93.5868Z" fill="#265A8D"/>
<path d="M87.8565 105.044C87.8565 104.09 87.8565 103.135 87.8565 103.135H91.6758C91.6758 103.135 91.6758 104.09 91.6758 105.044C91.6758 105.999 91.6758 106.954 91.6758 106.954H87.8565C87.8565 106.954 87.8565 105.999 87.8565 105.044Z" fill="#265A8D"/>
<path d="M19.1008 72.577C19.1008 59.2075 19.1008 45.838 19.1008 45.838H30.5597C30.5597 45.838 30.5597 59.2075 30.5597 72.577C30.5597 85.9465 30.5597 99.316 30.5597 99.316H19.1008C19.1008 99.316 19.1008 85.9465 19.1008 72.577Z" fill="#265A8D"/>
<path d="M70.6671 38.1979C71.1742 38.1979 71.6594 37.996 72.0177 37.6377C72.3759 37.2804 72.5778 36.7943 72.5778 36.2872C72.5778 36.2872 72.5778 35.8098 72.5778 35.3324C72.5778 34.855 72.5778 34.3776 72.5778 34.3776H57.2984C57.2984 34.3776 57.2984 34.855 57.2984 35.3324C57.2984 35.8098 57.2984 36.2872 57.2984 36.2872C57.2984 36.7943 57.4993 37.2805 57.8575 37.6377C58.2158 37.996 58.701 38.1979 59.208 38.1979H70.6671Z" fill="#265A8D"/>
<path d="M38.1997 105.044C38.1997 104.09 38.1997 103.135 38.1997 103.135H42.019C42.019 103.135 42.019 104.09 42.019 105.044C42.019 105.999 42.019 106.954 42.019 106.954H38.1997C38.1997 106.954 38.1997 105.999 38.1997 105.044Z" fill="#265A8D"/>
<path d="M57.8324 0H37.6676L35.1221 7.63958H60.3787L57.8324 0Z" fill="#265A8D"/>
<path d="M87.8567 21.0108C87.8567 22.0656 87.0019 22.9205 85.9471 22.9205C84.8922 22.9205 84.0374 22.0656 84.0374 21.0108C84.0374 19.9559 84.8922 19.1002 85.9471 19.1002C87.0019 19.1002 87.8567 19.9559 87.8567 21.0108Z" fill="#265A8D"/>
<path d="M42.0185 21.0086C42.0185 20.0538 42.0185 19.0989 42.0185 19.0989H57.2979C57.2979 19.0989 57.2979 20.0538 57.2979 21.0086C57.2979 21.9634 57.2979 22.9183 57.2979 22.9183H42.0185C42.0185 22.9183 42.0185 21.9634 42.0185 21.0086Z" fill="#265A8D"/>
<path d="M34.3785 11.4589C34.3785 11.4589 34.3785 16.2338 34.3785 21.0087C34.3785 25.7836 34.3785 30.5586 34.3785 30.5586H95.4941C95.4941 30.5586 95.4941 25.7836 95.4941 21.0087C95.4941 16.2338 95.4941 11.4589 95.4941 11.4589H34.3785ZM61.1172 21.0086C61.1172 22.9185 61.1172 24.8284 61.1172 24.8284C61.1172 25.3354 60.9163 25.8207 60.5581 26.1789C60.1998 26.5372 59.7136 26.7381 59.2075 26.7381H40.1079C39.053 26.7381 38.1982 25.8832 38.1982 24.8284C38.1982 24.8284 38.1982 22.9185 38.1982 21.0086C38.1982 19.0987 38.1982 17.1888 38.1982 17.1888C38.1982 16.134 39.053 15.2791 40.1079 15.2791H59.2075C59.7136 15.2791 60.1998 15.48 60.5581 15.8383C60.9163 16.1965 61.1172 16.6827 61.1172 17.1888C61.1172 17.1888 61.1172 19.0987 61.1172 21.0086ZM68.7568 24.8284C68.7568 25.7832 68.7568 26.7381 68.7568 26.7381H64.9375C64.9375 26.7381 64.9375 25.7832 64.9375 24.8284C64.9375 23.8736 64.9375 22.9188 64.9375 22.9188H68.7568C68.7568 22.9188 68.7568 23.8736 68.7568 24.8284ZM68.7568 17.1888C68.7568 18.1437 68.7568 19.0985 68.7568 19.0985H64.9375C64.9375 19.0985 64.9375 18.1437 64.9375 17.1888C64.9375 16.234 64.9375 15.2792 64.9375 15.2792H68.7568C68.7568 15.2792 68.7568 16.234 68.7568 17.1888ZM76.3964 24.8284C76.3964 25.7832 76.3964 26.7381 76.3964 26.7381H72.5771C72.5771 26.7381 72.5771 25.7832 72.5771 24.8284C72.5771 23.8736 72.5771 22.9188 72.5771 22.9188H76.3964C76.3964 22.9188 76.3964 23.8736 76.3964 24.8284ZM76.3964 17.1888C76.3964 18.1437 76.3964 19.0985 76.3964 19.0985H72.5771C72.5771 19.0985 72.5771 18.1437 72.5771 17.1888C72.5771 16.234 72.5771 15.2792 72.5771 15.2792H76.3964C76.3964 15.2792 76.3964 16.234 76.3964 17.1888ZM85.9456 26.7381C84.4264 26.7381 82.9687 26.1344 81.8941 25.0606C80.8194 23.9858 80.2157 22.5281 80.2157 21.0091C80.2157 19.4889 80.8194 18.0314 81.8941 16.9576C82.9688 15.8829 84.4266 15.2792 85.9456 15.2792C87.4658 15.2792 88.9225 15.8829 89.9971 16.9576C91.0718 18.0314 91.6755 19.4891 91.6755 21.0091C91.6755 22.5283 91.0718 23.986 89.9971 25.0606C88.9224 26.1344 87.4656 26.7381 85.9456 26.7381Z" fill="#265A8D"/>
<path d="M324 92C324 92 324 88.25 324 84.5C324 80.75 324 77 324 77" stroke="#7E8F9A" stroke-width="2" stroke-linecap="round"/>
<path d="M219 93C219 93 219 89.25 219 85.5C219 81.75 219 78 219 78" stroke="#7E8F9A" stroke-width="2" stroke-linecap="round"/>
</svg>
